<svg width="798" height="146" viewBox="0 0 798 146" fill="none" xmlns="http://www.w3.org/2000/svg">
<g clip-path="url(#clip0_2_173)">
<path d="M633.25 39C629.751 39.0001 626.915 39.6824 624.75 41.0625C622.585 42.4428 621.301 44.474 620.875 47.1562C620.291 50.8282 623.129 52.6563 629.375 52.6562C632.939 52.6563 635.784 51.9506 637.906 50.5312C640.028 49.112 641.274 47.1042 641.688 44.5C641.969 42.7292 641.374 41.3568 639.906 40.4062C638.439 39.4558 636.226 39.0001 633.25 39ZM551.469 40.3438L546.562 52.125C545.647 54.1823 544.8 57 544 60.5938L543.656 62.0312H543.281C541.696 59.6615 540.104 58.0756 538.562 57.2812C537.021 56.487 535.046 56.0938 532.594 56.0938C528.179 56.0938 523.937 57.362 519.875 59.875C515.813 62.3881 512.229 66.0573 509.125 70.875C506.021 75.6927 504.112 80.3959 503.375 85.0312C502.51 90.474 503.186 94.6589 505.406 97.5625C507.626 100.466 511.302 101.906 516.469 101.906C519.248 101.906 521.745 101.49 523.938 100.656C526.13 99.8229 528.309 98.401 530.5 96.3438H530.906L529.656 101.125H544.812L570.656 40.3438H551.469ZM602.469 56.0625C598.447 56.1851 590.998 56.8036 588.5 56.875H575.125L556.375 101.125H575.375L583.656 81.6875C585.303 77.9115 587.26 75.1172 589.562 73.2812C591.865 71.4453 594.726 70.5 598.094 70.5C600.35 70.5 602.294 70.8021 603.969 71.375L610.469 56.4062C609.923 56.2549 608.991 56.1977 607.875 56.1562C607.05 56.0606 605.991 56.1043 604 56.0625C603.587 56.0538 603.078 56.0439 602.469 56.0625ZM723.625 56.0938C717.379 56.0938 711.713 57.2526 706.594 59.5312C701.474 61.8099 697.182 65.1485 693.75 69.5625C690.318 73.9766 688.186 78.9115 687.312 84.4062C686.439 89.9011 687.663 94.1953 691.031 97.2812C694.399 100.367 699.568 101.906 706.5 101.906C710.653 101.906 714.36 101.617 717.625 101.031C720.89 100.445 724.477 99.4219 728.375 97.9375L730.062 87.2188C726.68 88.5469 723.707 89.5443 721.125 90.1562C718.543 90.7682 715.958 91.0625 713.375 91.0625C708.012 91.0625 705.638 89.1354 706.25 85.2812L706.344 84.6562H709.25C718.929 84.6563 726.531 83.2682 732.094 80.4688C737.656 77.6693 740.856 73.6407 741.688 68.4062C742.279 64.6823 740.958 61.7084 737.75 59.4688C734.542 57.2292 729.838 56.0938 723.625 56.0938ZM617.031 56.875L598.281 101.125H617.25L636.094 56.875H617.031ZM639.188 56.875L639.281 101.125H658.312L695.344 56.875H675.031C665.856 69.1906 661.797 74.6576 660.219 76.7812H656.031L658.062 56.875H639.188ZM719.906 66.3438C721.345 66.3438 722.343 66.6146 722.906 67.1875C723.469 67.7605 723.664 68.4792 723.531 69.3125C723.25 71.0834 722.012 72.5131 719.812 73.5938C717.613 74.6745 714.752 75.1875 711.188 75.1875H709.75C710.474 72.8959 711.854 70.8724 713.875 69.0625C715.896 67.2526 717.912 66.3438 719.906 66.3438ZM535.25 68.25C537.866 68.25 538.877 70.125 538.281 73.875C537.892 76.3229 537.07 78.8229 535.781 81.375C534.493 83.9271 532.98 85.9766 531.25 87.5C529.52 89.0234 527.854 89.7813 526.219 89.7812C523.407 89.7813 522.283 87.9115 522.875 84.1875C523.276 81.6615 524.152 79.138 525.5 76.625C526.848 74.112 528.406 72.099 530.188 70.5625C531.968 69.0261 533.648 68.25 535.25 68.25ZM488.5 87.2188C484.161 87.2188 480.656 90.7231 480.656 95.0625C480.656 99.4019 484.161 102.906 488.5 102.906C492.839 102.906 496.344 99.4019 496.344 95.0625C496.344 90.7231 492.839 87.2188 488.5 87.2188Z" fill="#FF6600"/>
<g clip-path="url(#clip1_2_173)">
<path d="M54.5312 54.1562C44.3373 54.1562 36.0625 62.4312 36.0625 72.625C36.0625 82.8189 44.3373 91.0938 54.5312 91.0938C64.7252 91.0938 73 82.8189 73 72.625C73 62.4312 64.7252 54.1562 54.5312 54.1562Z" fill="#FF6600"/>
<path d="M92.8438 36.9688C87.3909 36.9688 82.9688 41.3909 82.9688 46.8438C82.9688 52.2966 87.3909 56.7188 92.8438 56.7188C98.2966 56.7188 102.719 52.2966 102.719 46.8438C102.719 41.3909 98.2966 36.9688 92.8438 36.9688Z" fill="#FF6600"/>
<path d="M99.9062 80.4688C91.9798 80.4688 85.5625 86.8861 85.5625 94.8125C85.5625 102.739 91.9798 109.156 99.9062 109.156C107.833 109.156 114.25 102.739 114.25 94.8125C114.25 86.8861 107.833 80.4688 99.9062 80.4688Z" fill="#FF6600"/>
</g>
<path d="M80.4062 48.4062L68.5938 56.4062C70.8702 58.3843 72.747 60.8254 74.0312 63.5938L84.7188 56.375C82.401 54.392 80.8024 51.5857 80.4062 48.4062ZM100.5 56.7812C98.3877 58.4129 95.7524 59.4062 92.875 59.4062C92.4948 59.4062 92.1216 59.377 91.75 59.3438L94.2188 78.75C95.999 78.1196 97.9101 77.75 99.9062 77.75C101.039 77.75 102.148 77.8517 103.219 78.0625L100.5 56.7812ZM75.2188 78.4062C74.3939 81.3611 72.9406 84.0494 71.0312 86.3438L83.0625 92.2188C83.5346 89.1293 84.8225 86.3096 86.7188 84L75.2188 78.4062Z" fill="white"/>
<path d="M456.25 43.2188C446.901 43.2188 439.586 45.7813 434.312 50.9375C429.039 56.0938 426.406 63.2813 426.406 72.5C426.406 81.9792 428.674 89.2474 433.219 94.3125C437.763 99.3776 444.349 101.906 452.969 101.906C456.354 101.906 459.664 101.669 462.906 101.188C466.148 100.706 469.609 99.8854 473.281 98.6875V69.0625H450.625V79.1562H461.469V91.0625C458.865 91.5833 456.276 91.8438 453.75 91.8438C448.906 91.8438 445.227 90.2057 442.688 86.9375C440.148 83.6693 438.875 78.9479 438.875 72.75C438.875 66.8125 440.443 62.0782 443.594 58.5625C446.745 55.0469 450.953 53.2813 456.188 53.2812C460.693 53.2813 465.021 54.323 469.188 56.4062L473.219 46.7188C467.776 44.3751 462.109 43.2188 456.25 43.2188ZM144.188 44.0312V101.125H165.562C172.021 101.125 177.112 99.6667 180.875 96.75C184.638 93.8333 186.531 89.7708 186.531 84.5625C186.531 80.8906 185.727 77.9636 184.125 75.75C182.523 73.5365 179.932 72.0261 176.312 71.2188V70.8125C178.969 70.3698 181.086 69.0625 182.688 66.875C184.289 64.6875 185.094 61.8802 185.094 58.4688C185.094 53.4428 183.253 49.8047 179.594 47.5C175.935 45.1954 170.068 44.0313 161.969 44.0312H144.188ZM365.594 44.0312V101.125H376.406V74.25C376.406 71.9796 376.241 68.2738 376 63.875H379.438L400.875 101.125H416.25V44.0312H405.375V71.0625C405.375 73.2157 405.496 76.8367 405.688 81.125H402.375L380.875 44.0312H365.594ZM156.312 53.9375H162.656C166.12 53.9375 168.648 54.4245 170.25 55.375C171.852 56.3256 172.656 57.9063 172.656 60.0938C172.656 62.4375 171.94 64.1094 170.469 65.125C168.997 66.1407 166.625 66.6563 163.344 66.6562H156.312V53.9375ZM258.969 56.5625C252.849 56.5625 247.276 57.8698 242.25 60.5L246.188 68.5625C250.901 66.4532 255.01 65.4063 258.5 65.4062C263.031 65.4063 265.281 67.6042 265.281 72.0312V73.9375L257.719 74.1875C251.182 74.4219 246.273 75.6433 243.031 77.8438C239.789 80.0443 238.188 83.4584 238.188 88.0938C238.188 92.5208 239.372 95.9167 241.781 98.3125C244.19 100.708 247.495 101.906 251.688 101.906C251.917 101.906 252.12 101.879 252.344 101.875V101.906L277.094 101.125H277.125V72.0312C277.125 66.823 275.562 62.9584 272.438 60.4062C269.312 57.8542 264.828 56.5625 258.969 56.5625ZM213.375 56.6562C206.917 56.6563 201.846 58.6589 198.188 62.6562C194.529 66.6537 192.719 72.3073 192.719 79.625C192.719 86.7344 194.698 92.2136 198.656 96.0938C202.615 99.974 208.094 101.906 215.125 101.906C218.536 101.906 221.443 101.664 223.812 101.156C226.182 100.648 228.385 99.8854 230.469 98.8438V89.625C227.917 90.8229 225.469 91.6719 223.125 92.2188C220.781 92.7656 218.318 93.0625 215.688 93.0625C212.302 93.0625 209.656 92.0886 207.781 90.1875C205.906 88.2865 204.911 85.6667 204.781 82.2812H232.938V76.5C232.937 70.3021 231.219 65.4219 227.781 61.9062C224.344 58.3907 219.547 56.6563 213.375 56.6562ZM311.781 56.6562C308.917 56.6563 306.37 57.211 304.156 58.3438C301.943 59.4766 300.234 61.0573 299.062 63.0625H298.406L296.812 57.4688H287.719V101.125H299.625V80.5938C299.625 75.4636 300.307 71.7709 301.688 69.5312C303.068 67.2917 305.297 66.1875 308.344 66.1875C310.609 66.1875 312.258 66.9558 313.312 68.5312C314.367 70.1068 314.906 72.474 314.906 75.625V101.125H326.812V79.2188C326.812 74.6875 327.523 71.3959 328.969 69.3125C330.414 67.2292 332.615 66.1875 335.531 66.1875C337.797 66.1875 339.445 66.9558 340.5 68.5312C341.555 70.1068 342.094 72.474 342.094 75.625V101.125H354.031V72.6562C354.031 67.0573 352.758 63.0079 350.219 60.4688C347.68 57.9297 343.948 56.6563 339 56.6562C336.135 56.6563 333.56 57.1928 331.281 58.3125C329.003 59.4323 327.266 61.0313 326.094 63.0625H325.062C322.745 58.7917 318.318 56.6563 311.781 56.6562ZM213.438 65.125C215.964 65.125 217.984 65.9297 219.469 67.5312C220.953 69.1328 221.729 71.4011 221.781 74.3438H205.062C205.271 71.4011 206.068 69.1328 207.5 67.5312C208.932 65.9297 210.911 65.125 213.438 65.125ZM156.312 76.25H163.812C170.583 76.25 173.969 78.6354 173.969 83.375C173.969 86.0052 173.151 87.9427 171.562 89.2188C169.974 90.4948 167.521 91.125 164.188 91.125H156.312V76.25ZM265.281 80.9062V84.5C265.281 87.1302 264.466 89.224 262.812 90.8125C261.159 92.4011 258.948 93.2188 256.188 93.2188C252.333 93.2188 250.406 91.5156 250.406 88.1562C250.406 85.8125 251.245 84.0834 252.938 82.9375C254.63 81.7917 257.224 81.1667 260.688 81.0625L265.281 80.9062Z" fill="white"/>
</g>
<defs>
<clipPath id="clip0_2_173">
<rect width="706" height="74" fill="white" transform="translate(36 36)"/>
</clipPath>
<clipPath id="clip1_2_173">
<rect width="78.1875" height="72.1875" fill="white" transform="translate(36.0625 36.9688)"/>
</clipPath>
</defs>
</svg>
