<?xml version="1.0" encoding="UTF-8" standalone="no"?>
<!-- Created with Inkscape (http://www.inkscape.org/) -->

<svg
   xmlns:dc="http://purl.org/dc/elements/1.1/"
   xmlns:cc="http://creativecommons.org/ns#"
   xmlns:rdf="http://www.w3.org/1999/02/22-rdf-syntax-ns#"
   xmlns:svg="http://www.w3.org/2000/svg"
   xmlns="http://www.w3.org/2000/svg"
   xmlns:sodipodi="http://sodipodi.sourceforge.net/DTD/sodipodi-0.dtd"
   xmlns:inkscape="http://www.inkscape.org/namespaces/inkscape"
   width="144.79959mm"
   height="115.55056mm"
   viewBox="0 0 144.79959 115.55056"
   version="1.1"
   id="svg1460"
   inkscape:version="0.92.5 (2060ec1f9f, 2020-04-08)"
   sodipodi:docname="logo.svg">
  <defs
     id="defs1454" />
  <sodipodi:namedview
     id="base"
     pagecolor="#ffffff"
     bordercolor="#666666"
     borderopacity="1.0"
     inkscape:pageopacity="0.0"
     inkscape:pageshadow="2"
     inkscape:zoom="0.49497475"
     inkscape:cx="182.49568"
     inkscape:cy="49.886148"
     inkscape:document-units="mm"
     inkscape:current-layer="layer1"
     showgrid="false"
     showborder="true"
     inkscape:window-width="1280"
     inkscape:window-height="1374"
     inkscape:window-x="1280"
     inkscape:window-y="34"
     inkscape:window-maximized="0"
     fit-margin-top="-2.7755576e-17"
     fit-margin-left="0"
     fit-margin-right="0"
     fit-margin-bottom="0" />
  <metadata
     id="metadata1457">
    <rdf:RDF>
      <cc:Work
         rdf:about="">
        <dc:format>image/svg+xml</dc:format>
        <dc:type
           rdf:resource="http://purl.org/dc/dcmitype/StillImage" />
        <dc:title></dc:title>
      </cc:Work>
    </rdf:RDF>
  </metadata>
  <g
     inkscape:label="Layer 1"
     inkscape:groupmode="layer"
     id="layer1"
     transform="translate(-32.677569,-82.74258)">
    <g
       transform="translate(2039.3741,-976.80002)"
       style="display:inline"
       id="g5392">
      <path
         id="path110"
         style="fill:#ff6600;fill-opacity:1;stroke:none;stroke-width:0.70510387;stroke-dasharray:none;stroke-opacity:1"
         d="m -1905.9408,1059.5426 c -3.9874,1.3889 -7.2037,1.9711 -7.6001,2.6892 -0.3965,0.7181 0.2413,6.6548 0.2413,6.6548 l 2.438,0.081 c -0.01,-7e-4 -0.012,0 -0.018,0 0,0 0.2519,-0.8565 0.2987,-1.2061 0.047,-0.3495 2.9266,-2.7209 3.7698,-3.4798 1.9064,-0.04 25.9701,3.3509 38.9551,5.0265 0,0 0.5374,3.1015 0.3806,3.4337 -0.1569,0.3322 -3.6638,2.979 -4.5685,3.0158 -0.9046,0.036 -12.7281,-2.0997 -12.7281,-2.0997 l -5.9931,-0.6766 c -4.1162,-2.3044 -12.4677,-3.0533 -20.0597,-4.007 -0.3993,-0.028 -2.2862,-0.1567 -2.3181,-0.1597 -0.7921,-0.077 -1.6323,-0.103 -2.4252,-0.1775 -1.0908,-0.1025 -2.1829,-0.1853 -3.2775,-0.199 -2.1776,-0.027 -4.3634,0.072 -6.5247,0.3383 -2.656,0.3279 -5.2713,0.9412 -7.878,1.5466 -2.5999,0.6038 -5.2323,1.1452 -7.733,2.0782 -1.6945,0.6323 -3.3151,1.4644 -4.8815,2.3683 -1.0952,0.632 -2.1783,1.3073 -3.1415,2.1266 -5.9378,5.0507 -16.0461,17.0126 -16.0461,17.0126 0,0 -10.7138,1.601 -15.8526,3.2382 -2.701,0.8605 -5.2627,2.1306 -7.7814,3.4315 -2.2338,1.1539 -4.469,2.3526 -6.4763,3.8665 -1.1648,0.8785 -2.3363,1.8135 -3.1899,2.9966 -0.6959,0.9645 -1.2265,2.0803 -1.4983,3.2382 -0.2652,1.1296 -0.097,3.4799 -0.097,3.4799 0,0 -1.7077,1.1572 -2.3682,1.9332 -1.3146,1.5446 -2.3172,3.3749 -3.0449,5.2681 -0.6382,1.6606 -0.9436,3.4488 -1.1116,5.2198 -0.4413,4.6521 -0.1778,9.3665 0.29,14.0161 0.1623,1.6129 0.2344,3.2935 0.87,4.7848 0.6469,1.5178 1.7441,2.8339 2.8998,4.0115 1.9906,2.0282 4.5289,3.4346 6.8148,5.1232 4.9636,3.6666 9.7495,7.6041 14.9827,10.8745 4.7672,2.9793 9.5472,6.1659 14.886,7.9263 3.3258,1.0967 6.8949,1.3512 10.3913,1.5466 4.4584,0.2492 9.035,0.5136 13.3877,-0.4833 3.9799,-0.9115 7.8378,-2.6323 11.2129,-4.9298 2.1942,-1.4936 4.1189,-3.4417 5.6547,-5.6064 0.2169,-0.3056 0.3964,-0.6505 0.4834,-1.015 0.3069,-1.2853 0.035,-2.6432 0.097,-3.9631 0.1308,-2.7908 0.2609,-5.5859 0.58,-8.3613 0.2778,-2.4155 0.5075,-4.8593 1.1599,-7.2015 0.9307,-3.3407 2.1913,-6.7224 3.6045,-9.8894 1.0547,-2.3635 2.099,-4.7026 3.7076,-6.7301 1.9019,-2.3974 4.3242,-4.5395 7.1085,-5.8096 2.9914,-1.1785 4.9156,-1.1899 6.5617,1.7086 0.8896,1.6015 1.3306,3.6533 1.3499,5.4852 -0.1759,4.3145 -1.2157,11.6012 -1.7898,14.0259 0,0 9.2412,-7.3426 15.2338,-12.2111 5.7919,-4.7055 14.3655,-13.2687 14.7943,-14.7521 -0.2855,-5.2869 -0.7286,-9.7284 0.281,-14.0784 0.4222,-1.8002 1.4762,-4.1307 2.3606,-5.7545 0.9488,-1.6691 2.433,-3.7812 4.5941,-3.1823 1.3841,0.7604 1.5388,2.1722 2.0096,3.4455 1.3916,-3.5657 1.311,-8.5385 0.2632,-11.1177 -0.6324,-1.4664 -1.4574,-2.6891 -2.6927,-3.9518 l -2.7827,-2.6771 c 0,0 4.3047,-3.4463 4.9407,-4.3499 0.6359,-0.9035 1.1194,-6.9618 1.1841,-8.5787 -2.9215,-0.6678 -36.9492,-4.8205 -43.909,-5.3407 z m -4.8837,9.4292 c 0.04,0 0.2286,0.015 0.2318,0.016 l -0.2689,-0.021 c 0.012,0 0.025,0 0.037,0.01 z m -93.9056,61.328 c 1.8333,1.39 2.9382,2.5745 3.9772,3.5436 1.0389,0.9691 2.9075,2.2901 3.2001,2.8697 0.3992,0.7911 -0.8623,2.9074 -2.1146,4.9687 -1.7214,-1.4203 -2.6046,-2.5093 -3.5497,-4.0297 -0.7,-1.1261 -1.2559,-2.3783 -1.513,-3.6791 -0.2373,-1.2012 -0.4234,-2.8321 0,-3.6732 z m 9.2419,8.0954 c 0.3786,-0.099 2.3328,1.6276 3.4209,2.3441 4.2606,2.8053 8.8808,5.0964 13.6295,6.9597 3.7244,1.4615 11.5493,3.2677 11.5493,3.2677 0,0 -0.9039,3.4802 -1.8831,4.9487 -0.9104,1.3653 -1.4254,2.9151 -3.043,3.1921 -1.5824,0.271 -3.4996,-1.0404 -4.9316,-1.7664 -3.9229,-1.9886 -7.7727,-4.1431 -11.4546,-6.5489 -3.4128,-2.2299 -10.0458,-6.5082 -9.8233,-7.2859 0.5579,-1.9499 1.801,-3.5343 2.4819,-5.0661 0.01,-0.023 0.029,-0.039 0.054,-0.045 z m 30.9543,13.3376 c 5.0966,1.1904 13.9313,2.8438 15.2882,3.6992 1.1225,0.7077 1.8655,2.1547 1.9333,3.4799 0.088,1.7155 -0.6598,3.7005 -2.03,4.7365 -1.3994,1.0581 -3.4666,0.7447 -5.2197,0.6766 -4.0213,-0.1561 -11.9878,-1.3111 -11.8167,-2.4759 0.4982,-3.3913 1.8449,-10.1163 1.8449,-10.1163 z m 30.2479,0.1971 c 0.5613,7e-4 1.147,0.1907 1.5696,0.5056 1.1806,0.8798 1.4439,2.6176 1.74,4.0598 0.3757,1.8307 0.8883,3.9623 0,5.6065 -0.5311,0.9828 -1.6862,1.841 -2.8033,1.8366 -1.0455,-0.01 -2.0692,-0.845 -2.6099,-1.7399 -1.1223,-1.8579 -1.0762,-4.343 -0.6766,-6.4765 0.2467,-1.3172 0.6546,-2.9449 1.8366,-3.5765 0.2789,-0.149 0.6068,-0.2162 0.9436,-0.2156 z"
         sodipodi:nodetypes="sscccsccsscccsssssssscssssscsssssssssssssscssssccccsccccccccscssccccccsscsscssscssssscsscsssssccssscsssc"
         inkscape:connector-curvature="0" />
      <path
         style="fill:#ffffff;stroke:none;stroke-width:0.70510387;stroke-dasharray:none;stroke-opacity:1"
         d="m -1998.7102,1115.1531 c 0.3122,1.677 1.0331,3.5396 2.4464,4.4947 1.2775,0.8635 3.2074,1.2104 4.5946,0.537 1.4836,-0.7201 2.3278,-2.6414 2.5884,-4.2161 0.3313,-2.0012 0.1878,-4.1965 -0.8904,-5.847 -0.9703,-1.4854 -2.7232,-2.7951 -4.4967,-2.8481 -1.3169,-0.039 -2.7175,0.8231 -3.4594,1.9118 -1.1299,1.6579 -1.1499,3.9953 -0.7829,5.9677 z"
         id="path111"
         sodipodi:nodetypes="aaasaaaa"
         inkscape:connector-curvature="0" />
      <path
         style="fill:#dbe2e3;stroke:none;stroke-width:0.70510387;stroke-dasharray:none;stroke-opacity:1"
         d="m -1948.9909,1076.8808 c 0,0 8.797,2.8182 14.9212,4.0243 6.1242,1.2061 21.6524,2.6099 21.6524,2.6099 -1.0902,9.3822 -2.713,17.9991 -5.5097,24.0932 -3.0366,1.2763 -11.1318,0.7421 -17.496,0.1691 -6.3641,-0.5729 -16.4522,-1.245 -21.7491,-3.2865 -5.2969,-2.0416 -9.7839,-4.003 -10.0529,-6.6698 1.3259,-3.005 2.4407,-4.2531 2.4407,-4.2531 2.3405,-2.7416 4.427,-5.329 7.0216,-8.2247 2.5478,-2.6509 5.2761,-5.6344 8.7718,-8.4624 z"
         id="path112"
         sodipodi:nodetypes="cczzcczccc"
         inkscape:connector-curvature="0" />
      <path
         style="fill:#dbe2e3;stroke:none;stroke-width:0.70510387;stroke-dasharray:none;stroke-opacity:1"
         d="m -1911.0909,1105.7661 c -0.4835,-2.8952 0.01,-12.6746 0.4956,-16.1308 0.4857,-3.4562 0.4144,-3.9865 1.2303,-5.468 0.8158,-1.4816 1.6395,-2.1627 3.2125,-3.2125 1.5729,-1.0499 4.633,-2.1157 6.2882,-2.5973 3.3192,-1.0812 4.1988,-0.4456 4.9897,0.8885 1.2493,2.1018 3.9729,12.6946 4.4428,15.0714"
         id="path113"
         sodipodi:nodetypes="czzzccc"
         inkscape:connector-curvature="0" />
      <path
         style="fill:#cccccc;stroke:none;stroke-width:0.70510387;stroke-dasharray:none;stroke-opacity:1"
         d="m -1916.4033,1130.7936 c -1.3416,2.5459 -3.4698,6.637 -4.5408,11.1147 -0.8829,3.6911 -0.8768,7.9548 -0.6078,9.1256 0.5953,2.5911 1.596,4.3167 4.3981,5.1715 2.8022,0.8548 10.3605,-7.1332 12.2762,-13.2428 1.4678,-3.6892 2.2212,-7.659 2.7065,-11.5995 0.3828,-2.863 0.5011,-8.5713 -1.8365,-10.053 -1.002,-0.588 -2.3703,-0.1506 -3.4799,0.1933 -3.8499,1.6392 -6.9149,5.493 -8.9158,9.2902 z"
         id="path114"
         sodipodi:nodetypes="ssszccccs"
         inkscape:connector-curvature="0" />
      <path
         style="fill:#cccccc;stroke:none;stroke-width:0.70510387;stroke-dasharray:none;stroke-opacity:1"
         d="m -1864.1943,1102.6391 c -0.4335,3.3083 -2.8697,11.3055 -5.2564,11.494 -2.0754,0.1641 -2.364,-8.3332 -1.3533,-12.3489 0.564,-2.2408 1.8612,-6.05 3.4225,-7.8124 0.7636,-0.862 1.5905,-1.2343 2.4256,-0.6939 1.1953,1.1562 1.1927,6.0709 0.7616,9.3612 z"
         id="path115"
         sodipodi:nodetypes="sssscs"
         inkscape:connector-curvature="0" />
      <path
         style="fill:#333333;stroke:none;stroke-width:0.45062104;stroke-dasharray:none;stroke-opacity:1"
         d="m -1865.4414,1102.9789 c -0.277,2.1144 -1.834,7.2252 -3.3593,7.3457 -1.3264,0.1048 -1.5107,-5.3257 -0.8648,-7.892 0.5367,-2.1325 2.1125,-6.4877 3.7374,-5.4363 0.7639,0.7389 0.7622,3.8799 0.4867,5.9826 z"
         id="path116"
         sodipodi:nodetypes="ssacs"
         inkscape:connector-curvature="0" />
      <path
         style="fill:#333333;stroke:none;stroke-width:0.49783599;stroke-dasharray:none;stroke-opacity:1"
         d="m -1915.0603,1133.101 c -0.9472,1.7974 -2.4499,4.686 -3.206,7.8474 -0.6233,2.6062 -0.6191,5.6165 -0.4291,6.4431 0.4203,1.8295 1.1268,3.0477 3.1052,3.6513 1.9785,0.6035 7.3151,-5.0363 8.6676,-9.35 1.0363,-2.6047 1.5683,-5.4076 1.911,-8.1898 0.2702,-2.0214 0.3537,-6.0518 -1.2968,-7.0979 -0.7073,-0.4152 -1.6734,-0.1063 -2.4569,0.1365 -2.7182,1.1574 -4.8823,3.8784 -6.295,6.5594 z"
         id="path117"
         sodipodi:nodetypes="ssszccccs"
         inkscape:connector-curvature="0" />
      <g
         id="g119"
         transform="matrix(0.73067831,0,0,0.73067831,-700.20545,1026.9837)"
         style="stroke:#193678;stroke-opacity:1">
        <path
           style="fill:none;stroke:#193678;stroke-width:4.23977995;stroke-linecap:round;stroke-linejoin:round;stroke-dasharray:none;stroke-opacity:1"
           d="m -1697.0741,126.73093 c -3.455,0.0466 -5.7627,-0.2945 -10.2827,-1.22619 0,0 -6.9451,5.54763 -10.1346,8.63302 -2.9322,2.83626 -8.2412,9.0476 -8.2412,9.0476 5.4478,1.68003 9.5407,2.56732 14.2134,2.7364"
           id="path118"
           sodipodi:nodetypes="ccacc"
           inkscape:connector-curvature="0" />
        <path
           style="fill:none;stroke:#193678;stroke-width:4.23977995;stroke-linecap:round;stroke-linejoin:round;stroke-dasharray:none;stroke-opacity:1"
           d="m -1715.0624,134.47018 c 2.1395,0.34489 2.1295,0.31133 4.3338,0.51403"
           id="path119"
           sodipodi:nodetypes="cc"
           inkscape:connector-curvature="0" />
      </g>
      <path
         d="m -1947.9492,1125.5434 c -0.8483,1.3003 -1.4585,4.3015 -1.02,6.0888 0.5004,2.04 1.4739,4.0132 3.1238,5.0618 1.4943,0.9497 3.609,1.2164 5.2377,0.5422 1.3587,-0.5625 2.2445,-1.6251 2.8577,-3.4444 0.573,-1.7001 0.5754,-4.5334 -0.2098,-6.5684 -0.6861,-1.7778 -2.0816,-2.9677 -2.9556,-3.5252 -0.8741,-0.5575 -2.5128,-0.9686 -3.7049,-0.7586 -1.192,0.2099 -2.6984,1.6371 -3.3289,2.6038 z"
         style="fill:#ffffff;stroke:none;stroke-width:0.69380242;stroke-dasharray:none;stroke-opacity:1"
         id="path120"
         sodipodi:nodetypes="ssaassszs"
         inkscape:connector-curvature="0" />
      <g
         id="g122"
         transform="matrix(0.73067831,0,0,0.73067831,-699.2909,1026.0007)"
         style="stroke:#193678;stroke-opacity:1">
        <path
           style="fill:none;stroke:#193678;stroke-width:4.27722979;stroke-linecap:round;stroke-linejoin:round;stroke-dasharray:none;stroke-opacity:1"
           d="m -1735.8162,120.00269 c -2.8354,-1.22536 -4.6728,-1.71834 -7.5081,-3.37402 l -9.8161,6.51067 -9.565,7.04978 c 2.5468,3.79055 6.855,5.59201 11.5494,7.38428"
           id="path121"
           sodipodi:nodetypes="ccccc"
           inkscape:connector-curvature="0" />
        <path
           style="fill:none;stroke:#193678;stroke-width:4.46111012;stroke-linecap:round;stroke-linejoin:round;stroke-dasharray:none;stroke-opacity:1"
           d="m -1752.3305,122.81643 c 1.484,1.32932 3.2277,2.20067 4.9798,3.05719"
           id="path122"
           sodipodi:nodetypes="cc"
           inkscape:connector-curvature="0" />
      </g>
      <path
         style="fill:#11670d;fill-opacity:1;stroke:#ffffff;stroke-width:1.24215317;stroke-linecap:round;stroke-dasharray:none;stroke-opacity:1"
         d="m -1963.0634,1115.0637 c -1.0199,-0.1563 -2.9806,-0.878 -5.0126,-1.9902 0.7735,-1.3707 3.1089,-4.0254 5.6026,-4.9466 2.4937,-0.9212 4.4771,-0.8928 6.5122,-0.5868 2.0352,0.3061 4.9089,2.3356 5.7841,4.4953 0.8751,2.1597 0.5502,4.0634 -0.1224,6.2347 -0.6726,2.1712 -2.5412,5.0281 -5.3396,6.2163 -2.7984,1.1882 -6.655,1.4051 -8.9892,0.8049 -2.3343,-0.6003 -3.9126,-1.0332 -6.1719,-0.2963 -2.2594,0.7369 -4.3026,4.2519 -4.3026,4.2519 4.592,2.5084 10.5586,4.2481 13.5546,4.8802 -0.5901,1.7552 -1.078,3.4332 -1.5587,5.3856 -5.4196,-0.8106 -17.2847,-6.2837 -19.2224,-7.6661 0.7218,-5.1311 6.5835,-11.4897 9.7794,-12.5117 3.3092,-1.0583 5.6109,-0.028 7.8297,0.4934 2.2188,0.5215 4.5266,0.3514 6.626,-0.6043 1.7432,-0.7936 2.8419,-2.7664 2.0315,-4.6636 -0.8103,-1.8971 -3.5855,-2.0622 -4.7055,-1.579 -1.0232,0.5207 -1.5481,1.2258 -2.2952,2.0823 z"
         id="path123"
         sodipodi:nodetypes="cczzzzzzzcccczzszcc"
         inkscape:connector-curvature="0" />
      <path
         style="fill:#ffccaa;stroke:none;stroke-width:0.70510387"
         d="m -1890.7646,1072.9789 c 2.5341,1.9078 4.4109,3.0853 6.3256,5.6853 -3.1165,-2.4429 -5.4399,-4.5974 -8.5444,-6.6577 0.8625,0.2913 1.6607,0.6569 2.2188,0.9724 z"
         id="path124"
         sodipodi:nodetypes="cccc"
         inkscape:connector-curvature="0" />
      <path
         style="fill:#ffccaa;stroke:none;stroke-width:0.70510387"
         d="m -1945.4556,1123.2467 c 4.6342,-3.1083 9.5386,-5.1927 14.2599,-7.6049 -3.7769,2.5258 -6.8383,4.6808 -11.2899,7.4272 -0.8408,-0.1266 -2.1292,-0.082 -2.97,0.1777 z"
         id="path125"
         sodipodi:nodetypes="cccc"
         inkscape:connector-curvature="0" />
      <path
         d="m -1880.0792,1092.8103 0.5958,1.397 -1.2759,1.0331 0.8822,2.0793 1.4094,-1.1414 0.5653,1.4216 -1.3671,1.107 0.9672,2.8151 -1.2577,1.0184 -0.9973,-2.7904 -1.5188,1.2299 0.9914,2.7954 -1.2575,1.0185 -1.0036,-2.7856 -1.2817,1.0381 -0.608,-1.3871 1.2941,-1.048 -0.8942,-2.0694 -1.3791,1.1168 -0.6259,-1.3724 1.3971,-1.1316 -1.5149,-2.7236 1.4184,-1.0381 1.3846,2.7187 1.5187,-1.23 -1.2637,-2.4259 1.372,-0.8915 1.1735,2.2793 z m -1.9438,3.4535 -1.5429,1.2497 0.8821,2.0793 1.5369,-1.2448 z"
         id="path126"
         style="font-weight:bold;font-size:10.12790012px;font-family:'Microsoft YaHei UI';-inkscape-font-specification:'Microsoft YaHei UI, Bold';fill:#ffffff;stroke-width:4.88998413"
         sodipodi:nodetypes="cccccccccccccccccccccccccccccccccc"
         inkscape:connector-curvature="0" />
      <path
         d="m -1876.8056,1102.8296 c 2.3191,-1.6129 2.0674,-1.7814 2.885,-2.461 l 0.3273,1.4319 c -1.3191,1.2825 -2.6702,2.4897 -4.125,3.4552 l -0.3515,-0.5677 c -0.2466,-0.3983 -0.4034,-0.8113 -0.4707,-1.2389 -0.064,-0.4298 -0.063,-0.8735 0.01,-1.3311 0.064,-0.4609 0.2327,-1.0657 0.5053,-1.8144 0.237,-0.7042 0.361,-1.265 0.3721,-1.6822 0.01,-0.4206 -0.086,-0.7906 -0.2832,-1.1099 -0.4257,-0.6879 -0.992,-0.7768 -1.6991,-0.2667 -0.6201,0.4474 -0.3034,1.0929 -0.2744,1.2338 l -1.1028,0.812 c -0.254,-0.4628 -0.8434,-2.398 0.7609,-3.4038 0.4663,-0.2923 1.4137,-0.594 2.0747,-0.5044 0.659,0.086 1.2003,0.472 1.624,1.1565 0.2363,0.3819 0.3897,0.7711 0.4604,1.1677 0.088,0.9288 -0.056,1.9484 -0.324,2.7025 -0.2586,0.7199 -0.4095,1.2407 -0.4528,1.5623 -0.043,0.3216 -0.018,0.7103 0.073,0.8583 z"
         id="path127"
         style="font-weight:bold;font-size:10.12790012px;font-family:'Microsoft YaHei UI';-inkscape-font-specification:'Microsoft YaHei UI, Bold';fill:#11670d;fill-opacity:1;stroke-width:3.58755755"
         sodipodi:nodetypes="ccccsccccssccscsccccc"
         inkscape:connector-curvature="0" />
      <path
         d="m -1905.7508,1111.7118 c 0.9918,-0.6117 1.8226,-0.6848 2.4919,-0.2196 0.2554,0.2057 0.4404,0.4346 0.5548,0.6862 l 0.074,0.1629 c 0.1717,0.3775 0.2384,0.8104 0.2007,1.2981 -8e-4,0.1058 -0.053,0.3161 -0.1484,0.6318 -0.1556,0.45 -0.4604,0.8938 -0.9144,1.3319 -0.1174,0.1041 -0.218,0.1898 -0.3019,0.2572 l 0.2911,0.6404 c 0.1134,0.2493 0.089,0.4997 -0.073,0.7513 -0.057,0.07 -0.1155,0.1233 -0.1746,0.1598 -0.1699,0.1048 -0.3542,0.1015 -0.5528,-0.013 -0.1015,-0.07 -0.1834,-0.1496 -0.2198,-0.2529 -0.3227,-0.9197 -0.8703,-2.3633 -1.9461,-4.2455 -0.045,-0.101 -0.057,-0.2414 -0.034,-0.4209 0.025,-0.1354 0.095,-0.2628 0.2117,-0.3817 0.1523,-0.1318 0.3319,-0.2617 0.5391,-0.3894 z m 0.5738,1.1343 0.058,0.1259 c 0.166,0.3654 0.4289,0.9377 0.7889,1.7174 0.1345,-0.082 0.2716,-0.2502 0.3904,-0.3799 0.3835,-0.4642 0.4693,-0.9294 0.2574,-1.3959 l -0.02,-0.045 c -0.1392,-0.3061 -0.3897,-0.4152 -0.7518,-0.3277 -0.2505,0.063 -0.4902,0.1648 -0.7191,0.306 z m 2.0453,-4.3137 c 0.1918,-0.1183 0.3938,-0.1039 0.6057,0.046 0.063,0.037 0.1563,0.1878 0.2774,0.4544 1.2635,2.395 1.7165,3.6947 1.8333,3.9786 0.085,0.2065 0.082,0.4201 -0.03,0.6535 -0.061,0.1042 -0.1359,0.1833 -0.2231,0.237 -0.1874,0.1156 -0.3873,0.1031 -0.5992,-0.039 -0.086,-0.083 -0.1579,-0.1654 -0.1905,-0.2616 -0.1459,-0.4287 -0.6343,-1.7331 -1.9408,-4.1967 -0.047,-0.1036 -0.058,-0.2451 -0.034,-0.4246 0.049,-0.2043 0.1493,-0.3529 0.2999,-0.4456 z m 3.3014,-0.6476 c 0.3641,-0.2245 0.828,-0.5589 1.2737,-0.4491 0.4458,0.1101 0.5098,0.1805 0.7956,0.6074 0.1231,0.1836 0.4492,0.8047 0.5179,0.969 0.4401,0.9196 0.6346,1.4291 0.6907,1.5525 0.077,0.1702 0.076,0.3656 -0.01,0.5865 -0.062,0.1331 -0.147,0.2327 -0.2537,0.2985 -0.146,0.09 -0.3067,0.1023 -0.4815,0.037 l -0.01,5e-4 c -0.2322,0.3677 -0.4899,0.6387 -0.7734,0.8135 l -0.088,0.056 c -0.3401,0.2099 -0.7112,0.2806 -1.1133,0.2126 -0.5627,-0.1331 -0.9342,-0.5662 -1.246,-1.2523 -0.3578,-0.7873 -0.5053,-1.4956 -0.3102,-2.1719 0.1756,-0.5349 0.5097,-0.954 1.0022,-1.258 z m 0.2635,2.8093 c 0.1784,0.3922 0.3832,0.5851 0.6145,0.5784 0.093,-0.01 0.1934,-0.04 0.3001,-0.1046 l 0.01,-0.01 c 0.218,-0.1344 0.3756,-0.3248 0.473,-0.5713 0.015,-0.063 0.021,-0.1594 0.01,-0.2887 -0.045,-0.3072 -0.1155,-0.5669 -0.2119,-0.7793 -0.047,-0.1012 -0.1581,-0.3417 -0.3363,-0.7215 -0.2287,0.062 -0.4268,0.1448 -0.5948,0.2482 -0.3378,0.2085 -0.4969,0.4851 -0.4769,0.8298 0.024,0.2679 0.094,0.5391 0.2187,0.8129 z m 4.3517,-5.485 0.025,-0.015 c 0.1766,-0.1091 0.3709,-0.096 0.5828,0.037 0.081,0.067 0.1388,0.1404 0.1747,0.2195 l 0.013,0.029 c 0.2788,1.7211 0.4369,3.5069 0.4446,5.2711 -0.031,0.2799 -0.1294,0.4733 -0.3018,0.5794 l -0.03,0.017 c -0.1767,0.1089 -0.3711,0.096 -0.5829,-0.037 -0.081,-0.067 -0.1387,-0.1404 -0.1747,-0.2193 l -0.012,-0.026 c -0.043,-0.096 -0.072,-0.3063 -0.085,-0.6299 -0.045,-0.5725 -0.071,-0.8762 -0.075,-0.9112 -1.2749,-1.1883 -2.1708,-1.7342 -2.2737,-1.8063 -0.049,-0.058 -0.084,-0.1095 -0.1035,-0.1541 l -0.016,-0.037 c -0.098,-0.2148 -0.074,-0.4488 0.071,-0.702 0.058,-0.075 0.1149,-0.1278 0.1694,-0.1615 l 0.033,-0.02 c 0.1832,-0.1129 0.3836,-0.096 0.601,0.051 0.925,0.6294 1.3792,1.0713 1.3832,1.0904 l 0.01,-0.01 c -0.097,-1.2576 -0.1468,-1.9349 -0.1484,-2.0316 0.033,-0.2577 0.1334,-0.4376 0.2989,-0.5398 z m 2.3074,-1.4896 0.082,-0.05 c 0.6867,-0.4235 1.3257,-0.4701 1.9169,-0.1399 0.3268,0.2031 0.5821,0.5069 0.7661,0.9116 0.148,0.3257 0.1096,0.6194 -0.1141,0.8811 0.01,0.015 -0.6209,0.4364 -1.8824,1.2654 0.105,0.09 0.2558,0.1454 0.4525,0.1664 0.1145,0 0.229,-0.028 0.3445,-0.099 l 0.058,-0.036 c 0.2854,-0.1762 0.4763,-0.3981 0.5723,-0.666 0.065,-0.1095 0.1352,-0.1875 0.2115,-0.2346 l 0.032,-0.02 c 0.1897,-0.1172 0.3933,-0.096 0.6111,0.065 0.064,0.068 0.1101,0.1325 0.1382,0.1942 l 0.016,0.037 c 0.1492,0.328 0,0.7525 -0.4347,1.2727 -0.1855,0.206 -0.397,0.3824 -0.6346,0.5289 -0.4752,0.2931 -0.95,0.3632 -1.4243,0.2102 -0.2268,-0.075 -0.3981,-0.1542 -0.5141,-0.2374 -0.3565,-0.2257 -0.5796,-0.5464 -0.8139,-0.9392 -0.042,-0.076 -0.074,-0.1359 -0.096,-0.1827 l -0.068,-0.1481 c -0.1896,-0.4171 -0.3174,-0.8625 -0.239,-1.3595 0.1197,-0.6017 0.4592,-1.0747 1.0172,-1.419 z m 0.1114,1.7899 0.01,-0.01 c 0.1025,-0.064 0.5175,-0.3382 1.2455,-0.8251 l -0.01,-0.012 c -0.2057,-0.072 -0.5767,-0.1969 -0.895,-6e-4 -0.3096,0.1909 -0.355,0.5822 -0.3539,0.7996 -0.01,0.01 0,0.018 0.01,0.04 z m 3.8445,-4.049 0.1211,-0.075 c 0.2485,-0.1532 0.5468,-0.1998 0.8953,-0.1397 0.2913,0.064 0.4795,0.1893 0.5647,0.3768 l 0.02,0.041 c 0.097,0.2146 0.074,0.4488 -0.071,0.7021 -0.059,0.074 -0.1151,0.1278 -0.1695,0.1615 l -0.033,0.02 c -0.1505,0.093 -0.3341,0.094 -0.5511,0 -0.069,-0.015 -0.1333,0.01 -0.1921,0.036 -0.2159,0.1348 0.1652,1.8877 0.4398,2.5343 0.046,0.089 0.076,0.1479 0.089,0.1773 0.042,0.094 0.053,0.2286 0.025,0.4045 -0.051,0.2081 -0.1445,0.3545 -0.2819,0.4392 l -0.036,0.022 c -0.1896,0.117 -0.3934,0.095 -0.6109,-0.065 -0.065,-0.045 -0.1777,-0.2445 -0.3381,-0.5973 -0.443,-1.4279 -1.1462,-2.3728 -1.2211,-2.5028 -0.087,-0.1495 -0.065,-0.3517 0.02,-0.5814 0.061,-0.1269 0.1393,-0.2187 0.2309,-0.275 l 0.022,-0.014 c 0.1548,-0.095 0.3285,-0.097 0.5215,-0.01 0.1428,-0.306 0.3266,-0.5283 0.5512,-0.6667 z"
         id="text127"
         style="font-size:10.29570007px;line-height:1.09000003;font-family:'Candy Beans';-inkscape-font-specification:'Candy Beans, Normal';text-align:center;letter-spacing:0.0643489px;word-spacing:0.0659572px;text-anchor:middle;fill:#193678;fill-opacity:1;stroke-width:0.80946004;stroke-linecap:round"
         aria-label="player"
         sodipodi:nodetypes="scssccccscscscccsscsccsscccsccscscsccssczscscsccsscscccccccccscsccccscsscsscsscccsscsscccccccscsccccscsscsscscccsscscccccsccccscsscsscscscssccscssccc"
         inkscape:connector-curvature="0" />
    </g>
  </g>
</svg>
