<?xml version="1.0" encoding="UTF-8"?>
<!DOCTYPE svg PUBLIC "-//W3C//DTD SVG 1.1//EN" "http://www.w3.org/Graphics/SVG/1.1/DTD/svg11.dtd">
<svg xmlns="http://www.w3.org/2000/svg" version="1.1" width="828px" height="824px"
    style="shape-rendering:geometricPrecision; text-rendering:geometricPrecision; image-rendering:optimizeQuality; fill-rule:evenodd; clip-rule:evenodd"
    xmlns:xlink="http://www.w3.org/1999/xlink">
    <g>
        <path style="opacity:0.995" fill="#d50b2e"
            d="M 439.5,823.5 C 420.167,823.5 400.833,823.5 381.5,823.5C 247.77,811.248 142.936,750.248 67,640.5C 29.518,582.388 8.18464,518.721 3,449.5C 2.5,301.834 2.33333,154.167 2.5,6.5C 36.8333,6.5 71.1667,6.5 105.5,6.5C 105.333,152.5 105.5,298.5 106,444.5C 116.568,543.865 163.402,620.699 246.5,675C 323.118,720.66 404.785,732.66 491.5,711C 598.067,679.433 668.9,610.933 704,505.5C 711.247,480.684 715.247,455.351 716,429.5C 716.5,288.5 716.667,147.5 716.5,6.5C 750.833,6.5 785.167,6.5 819.5,6.5C 819.97,155.177 819.47,303.844 818,452.5C 808.17,559.658 763.67,649.158 684.5,721C 614.115,781.534 532.449,815.701 439.5,823.5 Z" />
    </g>
    <g>
        <path style="opacity:0.992" fill="#d50a2e"
            d="M 206.5,6.5 C 240.833,6.5 275.167,6.5 309.5,6.5C 309.009,150.863 309.509,295.196 311,439.5C 323.303,483.8 352.136,509.967 397.5,518C 444.798,521.94 479.965,503.44 503,462.5C 508.354,450.75 511.354,438.417 512,425.5C 512.5,285.834 512.667,146.167 512.5,6.5C 546.833,6.5 581.167,6.5 615.5,6.5C 615.667,146.834 615.5,287.167 615,427.5C 611.437,493.81 582.937,546.31 529.5,585C 465.153,625.78 397.486,632.113 326.5,604C 257.337,571.545 217.503,517.378 207,441.5C 206.5,296.5 206.333,151.5 206.5,6.5 Z" />
    </g>
</svg>