<svg xmlns="http://www.w3.org/2000/svg" version="1.1" xmlns:xlink="http://www.w3.org/1999/xlink"
    xmlns:svgjs="http://svgjs.dev/svgjs" viewBox="0 0 800 800" opacity="1">
    <g stroke-width="3.5" stroke="#fce4cf" fill="none" stroke-linecap="round"
        transform="matrix(1,0,0,1,-5,-508.51965141296387)">
        <path
            d="M10,10C18.333333333333336,11.458333333333334,31.25,21.166666666666668,50,17C68.75,12.833333333333332,79.16666666666666,-10.208333333333334,100,-10C120.83333333333334,-9.791666666666666,129.16666666666666,17.375,150,18C170.83333333333334,18.625,179.16666666666666,-8.458333333333334,200,-7C220.83333333333334,-5.541666666666666,229.16666666666666,23.958333333333332,250,25C270.8333333333333,26.041666666666668,279.1666666666667,-3.041666666666667,300,-2C320.8333333333333,-0.9583333333333333,329.1666666666667,29.375,350,30C370.8333333333333,30.625,379.1666666666667,0.375,400,1C420.8333333333333,1.625,429.1666666666667,31.541666666666668,450,33C470.8333333333333,34.458333333333336,479.1666666666667,8.208333333333334,500,8C520.8333333333334,7.791666666666667,529.1666666666666,31.583333333333332,550,32C570.8333333333334,32.416666666666664,579.1666666666666,8.75,600,10C620.8333333333334,11.25,629.1666666666666,36.541666666666664,650,38C670.8333333333334,39.458333333333336,679.1666666666666,15.541666666666666,700,17C720.8333333333334,18.458333333333332,729.1666666666666,43.958333333333336,750,45C770.8333333333334,46.041666666666664,789.5833333333334,26.791666666666668,800,22">
        </path>
        <path
            d="M10,10C18.333333333333336,11.458333333333334,31.25,21.166666666666668,50,17C68.75,12.833333333333332,79.16666666666666,-10.208333333333334,100,-10C120.83333333333334,-9.791666666666666,129.16666666666666,17.375,150,18C170.83333333333334,18.625,179.16666666666666,-8.458333333333334,200,-7C220.83333333333334,-5.541666666666666,229.16666666666666,23.958333333333332,250,25C270.8333333333333,26.041666666666668,279.1666666666667,-3.041666666666667,300,-2C320.8333333333333,-0.9583333333333333,329.1666666666667,29.375,350,30C370.8333333333333,30.625,379.1666666666667,0.375,400,1C420.8333333333333,1.625,429.1666666666667,31.541666666666668,450,33C470.8333333333333,34.458333333333336,479.1666666666667,8.208333333333334,500,8C520.8333333333334,7.791666666666667,529.1666666666666,31.583333333333332,550,32C570.8333333333334,32.416666666666664,579.1666666666666,8.75,600,10C620.8333333333334,11.25,629.1666666666666,36.541666666666664,650,38C670.8333333333334,39.458333333333336,679.1666666666666,15.541666666666666,700,17C720.8333333333334,18.458333333333332,729.1666666666666,43.958333333333336,750,45C770.8333333333334,46.041666666666664,789.5833333333334,26.791666666666668,800,22"
            transform="matrix(1,0,0,1,0,1782)"></path>
        <path
            d="M10,10C18.333333333333336,11.458333333333334,31.25,21.166666666666668,50,17C68.75,12.833333333333332,79.16666666666666,-10.208333333333334,100,-10C120.83333333333334,-9.791666666666666,129.16666666666666,17.375,150,18C170.83333333333334,18.625,179.16666666666666,-8.458333333333334,200,-7C220.83333333333334,-5.541666666666666,229.16666666666666,23.958333333333332,250,25C270.8333333333333,26.041666666666668,279.1666666666667,-3.041666666666667,300,-2C320.8333333333333,-0.9583333333333333,329.1666666666667,29.375,350,30C370.8333333333333,30.625,379.1666666666667,0.375,400,1C420.8333333333333,1.625,429.1666666666667,31.541666666666668,450,33C470.8333333333333,34.458333333333336,479.1666666666667,8.208333333333334,500,8C520.8333333333334,7.791666666666667,529.1666666666666,31.583333333333332,550,32C570.8333333333334,32.416666666666664,579.1666666666666,8.75,600,10C620.8333333333334,11.25,629.1666666666666,36.541666666666664,650,38C670.8333333333334,39.458333333333336,679.1666666666666,15.541666666666666,700,17C720.8333333333334,18.458333333333332,729.1666666666666,43.958333333333336,750,45C770.8333333333334,46.041666666666664,789.5833333333334,26.791666666666668,800,22"
            transform="matrix(1,0,0,1,0,1716)"></path>
        <path
            d="M10,10C18.333333333333336,11.458333333333334,31.25,21.166666666666668,50,17C68.75,12.833333333333332,79.16666666666666,-10.208333333333334,100,-10C120.83333333333334,-9.791666666666666,129.16666666666666,17.375,150,18C170.83333333333334,18.625,179.16666666666666,-8.458333333333334,200,-7C220.83333333333334,-5.541666666666666,229.16666666666666,23.958333333333332,250,25C270.8333333333333,26.041666666666668,279.1666666666667,-3.041666666666667,300,-2C320.8333333333333,-0.9583333333333333,329.1666666666667,29.375,350,30C370.8333333333333,30.625,379.1666666666667,0.375,400,1C420.8333333333333,1.625,429.1666666666667,31.541666666666668,450,33C470.8333333333333,34.458333333333336,479.1666666666667,8.208333333333334,500,8C520.8333333333334,7.791666666666667,529.1666666666666,31.583333333333332,550,32C570.8333333333334,32.416666666666664,579.1666666666666,8.75,600,10C620.8333333333334,11.25,629.1666666666666,36.541666666666664,650,38C670.8333333333334,39.458333333333336,679.1666666666666,15.541666666666666,700,17C720.8333333333334,18.458333333333332,729.1666666666666,43.958333333333336,750,45C770.8333333333334,46.041666666666664,789.5833333333334,26.791666666666668,800,22"
            transform="matrix(1,0,0,1,0,1650)"></path>
        <path
            d="M10,10C18.333333333333336,11.458333333333334,31.25,21.166666666666668,50,17C68.75,12.833333333333332,79.16666666666666,-10.208333333333334,100,-10C120.83333333333334,-9.791666666666666,129.16666666666666,17.375,150,18C170.83333333333334,18.625,179.16666666666666,-8.458333333333334,200,-7C220.83333333333334,-5.541666666666666,229.16666666666666,23.958333333333332,250,25C270.8333333333333,26.041666666666668,279.1666666666667,-3.041666666666667,300,-2C320.8333333333333,-0.9583333333333333,329.1666666666667,29.375,350,30C370.8333333333333,30.625,379.1666666666667,0.375,400,1C420.8333333333333,1.625,429.1666666666667,31.541666666666668,450,33C470.8333333333333,34.458333333333336,479.1666666666667,8.208333333333334,500,8C520.8333333333334,7.791666666666667,529.1666666666666,31.583333333333332,550,32C570.8333333333334,32.416666666666664,579.1666666666666,8.75,600,10C620.8333333333334,11.25,629.1666666666666,36.541666666666664,650,38C670.8333333333334,39.458333333333336,679.1666666666666,15.541666666666666,700,17C720.8333333333334,18.458333333333332,729.1666666666666,43.958333333333336,750,45C770.8333333333334,46.041666666666664,789.5833333333334,26.791666666666668,800,22"
            transform="matrix(1,0,0,1,0,1584)"></path>
        <path
            d="M10,10C18.333333333333336,11.458333333333334,31.25,21.166666666666668,50,17C68.75,12.833333333333332,79.16666666666666,-10.208333333333334,100,-10C120.83333333333334,-9.791666666666666,129.16666666666666,17.375,150,18C170.83333333333334,18.625,179.16666666666666,-8.458333333333334,200,-7C220.83333333333334,-5.541666666666666,229.16666666666666,23.958333333333332,250,25C270.8333333333333,26.041666666666668,279.1666666666667,-3.041666666666667,300,-2C320.8333333333333,-0.9583333333333333,329.1666666666667,29.375,350,30C370.8333333333333,30.625,379.1666666666667,0.375,400,1C420.8333333333333,1.625,429.1666666666667,31.541666666666668,450,33C470.8333333333333,34.458333333333336,479.1666666666667,8.208333333333334,500,8C520.8333333333334,7.791666666666667,529.1666666666666,31.583333333333332,550,32C570.8333333333334,32.416666666666664,579.1666666666666,8.75,600,10C620.8333333333334,11.25,629.1666666666666,36.541666666666664,650,38C670.8333333333334,39.458333333333336,679.1666666666666,15.541666666666666,700,17C720.8333333333334,18.458333333333332,729.1666666666666,43.958333333333336,750,45C770.8333333333334,46.041666666666664,789.5833333333334,26.791666666666668,800,22"
            transform="matrix(1,0,0,1,0,1518)"></path>
        <path
            d="M10,10C18.333333333333336,11.458333333333334,31.25,21.166666666666668,50,17C68.75,12.833333333333332,79.16666666666666,-10.208333333333334,100,-10C120.83333333333334,-9.791666666666666,129.16666666666666,17.375,150,18C170.83333333333334,18.625,179.16666666666666,-8.458333333333334,200,-7C220.83333333333334,-5.541666666666666,229.16666666666666,23.958333333333332,250,25C270.8333333333333,26.041666666666668,279.1666666666667,-3.041666666666667,300,-2C320.8333333333333,-0.9583333333333333,329.1666666666667,29.375,350,30C370.8333333333333,30.625,379.1666666666667,0.375,400,1C420.8333333333333,1.625,429.1666666666667,31.541666666666668,450,33C470.8333333333333,34.458333333333336,479.1666666666667,8.208333333333334,500,8C520.8333333333334,7.791666666666667,529.1666666666666,31.583333333333332,550,32C570.8333333333334,32.416666666666664,579.1666666666666,8.75,600,10C620.8333333333334,11.25,629.1666666666666,36.541666666666664,650,38C670.8333333333334,39.458333333333336,679.1666666666666,15.541666666666666,700,17C720.8333333333334,18.458333333333332,729.1666666666666,43.958333333333336,750,45C770.8333333333334,46.041666666666664,789.5833333333334,26.791666666666668,800,22"
            transform="matrix(1,0,0,1,0,1452)"></path>
        <path
            d="M10,10C18.333333333333336,11.458333333333334,31.25,21.166666666666668,50,17C68.75,12.833333333333332,79.16666666666666,-10.208333333333334,100,-10C120.83333333333334,-9.791666666666666,129.16666666666666,17.375,150,18C170.83333333333334,18.625,179.16666666666666,-8.458333333333334,200,-7C220.83333333333334,-5.541666666666666,229.16666666666666,23.958333333333332,250,25C270.8333333333333,26.041666666666668,279.1666666666667,-3.041666666666667,300,-2C320.8333333333333,-0.9583333333333333,329.1666666666667,29.375,350,30C370.8333333333333,30.625,379.1666666666667,0.375,400,1C420.8333333333333,1.625,429.1666666666667,31.541666666666668,450,33C470.8333333333333,34.458333333333336,479.1666666666667,8.208333333333334,500,8C520.8333333333334,7.791666666666667,529.1666666666666,31.583333333333332,550,32C570.8333333333334,32.416666666666664,579.1666666666666,8.75,600,10C620.8333333333334,11.25,629.1666666666666,36.541666666666664,650,38C670.8333333333334,39.458333333333336,679.1666666666666,15.541666666666666,700,17C720.8333333333334,18.458333333333332,729.1666666666666,43.958333333333336,750,45C770.8333333333334,46.041666666666664,789.5833333333334,26.791666666666668,800,22"
            transform="matrix(1,0,0,1,0,1386)"></path>
        <path
            d="M10,10C18.333333333333336,11.458333333333334,31.25,21.166666666666668,50,17C68.75,12.833333333333332,79.16666666666666,-10.208333333333334,100,-10C120.83333333333334,-9.791666666666666,129.16666666666666,17.375,150,18C170.83333333333334,18.625,179.16666666666666,-8.458333333333334,200,-7C220.83333333333334,-5.541666666666666,229.16666666666666,23.958333333333332,250,25C270.8333333333333,26.041666666666668,279.1666666666667,-3.041666666666667,300,-2C320.8333333333333,-0.9583333333333333,329.1666666666667,29.375,350,30C370.8333333333333,30.625,379.1666666666667,0.375,400,1C420.8333333333333,1.625,429.1666666666667,31.541666666666668,450,33C470.8333333333333,34.458333333333336,479.1666666666667,8.208333333333334,500,8C520.8333333333334,7.791666666666667,529.1666666666666,31.583333333333332,550,32C570.8333333333334,32.416666666666664,579.1666666666666,8.75,600,10C620.8333333333334,11.25,629.1666666666666,36.541666666666664,650,38C670.8333333333334,39.458333333333336,679.1666666666666,15.541666666666666,700,17C720.8333333333334,18.458333333333332,729.1666666666666,43.958333333333336,750,45C770.8333333333334,46.041666666666664,789.5833333333334,26.791666666666668,800,22"
            transform="matrix(1,0,0,1,0,1320)"></path>
        <path
            d="M10,10C18.333333333333336,11.458333333333334,31.25,21.166666666666668,50,17C68.75,12.833333333333332,79.16666666666666,-10.208333333333334,100,-10C120.83333333333334,-9.791666666666666,129.16666666666666,17.375,150,18C170.83333333333334,18.625,179.16666666666666,-8.458333333333334,200,-7C220.83333333333334,-5.541666666666666,229.16666666666666,23.958333333333332,250,25C270.8333333333333,26.041666666666668,279.1666666666667,-3.041666666666667,300,-2C320.8333333333333,-0.9583333333333333,329.1666666666667,29.375,350,30C370.8333333333333,30.625,379.1666666666667,0.375,400,1C420.8333333333333,1.625,429.1666666666667,31.541666666666668,450,33C470.8333333333333,34.458333333333336,479.1666666666667,8.208333333333334,500,8C520.8333333333334,7.791666666666667,529.1666666666666,31.583333333333332,550,32C570.8333333333334,32.416666666666664,579.1666666666666,8.75,600,10C620.8333333333334,11.25,629.1666666666666,36.541666666666664,650,38C670.8333333333334,39.458333333333336,679.1666666666666,15.541666666666666,700,17C720.8333333333334,18.458333333333332,729.1666666666666,43.958333333333336,750,45C770.8333333333334,46.041666666666664,789.5833333333334,26.791666666666668,800,22"
            transform="matrix(1,0,0,1,0,1254)"></path>
        <path
            d="M10,10C18.333333333333336,11.458333333333334,31.25,21.166666666666668,50,17C68.75,12.833333333333332,79.16666666666666,-10.208333333333334,100,-10C120.83333333333334,-9.791666666666666,129.16666666666666,17.375,150,18C170.83333333333334,18.625,179.16666666666666,-8.458333333333334,200,-7C220.83333333333334,-5.541666666666666,229.16666666666666,23.958333333333332,250,25C270.8333333333333,26.041666666666668,279.1666666666667,-3.041666666666667,300,-2C320.8333333333333,-0.9583333333333333,329.1666666666667,29.375,350,30C370.8333333333333,30.625,379.1666666666667,0.375,400,1C420.8333333333333,1.625,429.1666666666667,31.541666666666668,450,33C470.8333333333333,34.458333333333336,479.1666666666667,8.208333333333334,500,8C520.8333333333334,7.791666666666667,529.1666666666666,31.583333333333332,550,32C570.8333333333334,32.416666666666664,579.1666666666666,8.75,600,10C620.8333333333334,11.25,629.1666666666666,36.541666666666664,650,38C670.8333333333334,39.458333333333336,679.1666666666666,15.541666666666666,700,17C720.8333333333334,18.458333333333332,729.1666666666666,43.958333333333336,750,45C770.8333333333334,46.041666666666664,789.5833333333334,26.791666666666668,800,22"
            transform="matrix(1,0,0,1,0,1188)"></path>
        <path
            d="M10,10C18.333333333333336,11.458333333333334,31.25,21.166666666666668,50,17C68.75,12.833333333333332,79.16666666666666,-10.208333333333334,100,-10C120.83333333333334,-9.791666666666666,129.16666666666666,17.375,150,18C170.83333333333334,18.625,179.16666666666666,-8.458333333333334,200,-7C220.83333333333334,-5.541666666666666,229.16666666666666,23.958333333333332,250,25C270.8333333333333,26.041666666666668,279.1666666666667,-3.041666666666667,300,-2C320.8333333333333,-0.9583333333333333,329.1666666666667,29.375,350,30C370.8333333333333,30.625,379.1666666666667,0.375,400,1C420.8333333333333,1.625,429.1666666666667,31.541666666666668,450,33C470.8333333333333,34.458333333333336,479.1666666666667,8.208333333333334,500,8C520.8333333333334,7.791666666666667,529.1666666666666,31.583333333333332,550,32C570.8333333333334,32.416666666666664,579.1666666666666,8.75,600,10C620.8333333333334,11.25,629.1666666666666,36.541666666666664,650,38C670.8333333333334,39.458333333333336,679.1666666666666,15.541666666666666,700,17C720.8333333333334,18.458333333333332,729.1666666666666,43.958333333333336,750,45C770.8333333333334,46.041666666666664,789.5833333333334,26.791666666666668,800,22"
            transform="matrix(1,0,0,1,0,1122)"></path>
        <path
            d="M10,10C18.333333333333336,11.458333333333334,31.25,21.166666666666668,50,17C68.75,12.833333333333332,79.16666666666666,-10.208333333333334,100,-10C120.83333333333334,-9.791666666666666,129.16666666666666,17.375,150,18C170.83333333333334,18.625,179.16666666666666,-8.458333333333334,200,-7C220.83333333333334,-5.541666666666666,229.16666666666666,23.958333333333332,250,25C270.8333333333333,26.041666666666668,279.1666666666667,-3.041666666666667,300,-2C320.8333333333333,-0.9583333333333333,329.1666666666667,29.375,350,30C370.8333333333333,30.625,379.1666666666667,0.375,400,1C420.8333333333333,1.625,429.1666666666667,31.541666666666668,450,33C470.8333333333333,34.458333333333336,479.1666666666667,8.208333333333334,500,8C520.8333333333334,7.791666666666667,529.1666666666666,31.583333333333332,550,32C570.8333333333334,32.416666666666664,579.1666666666666,8.75,600,10C620.8333333333334,11.25,629.1666666666666,36.541666666666664,650,38C670.8333333333334,39.458333333333336,679.1666666666666,15.541666666666666,700,17C720.8333333333334,18.458333333333332,729.1666666666666,43.958333333333336,750,45C770.8333333333334,46.041666666666664,789.5833333333334,26.791666666666668,800,22"
            transform="matrix(1,0,0,1,0,1056)"></path>
        <path
            d="M10,10C18.333333333333336,11.458333333333334,31.25,21.166666666666668,50,17C68.75,12.833333333333332,79.16666666666666,-10.208333333333334,100,-10C120.83333333333334,-9.791666666666666,129.16666666666666,17.375,150,18C170.83333333333334,18.625,179.16666666666666,-8.458333333333334,200,-7C220.83333333333334,-5.541666666666666,229.16666666666666,23.958333333333332,250,25C270.8333333333333,26.041666666666668,279.1666666666667,-3.041666666666667,300,-2C320.8333333333333,-0.9583333333333333,329.1666666666667,29.375,350,30C370.8333333333333,30.625,379.1666666666667,0.375,400,1C420.8333333333333,1.625,429.1666666666667,31.541666666666668,450,33C470.8333333333333,34.458333333333336,479.1666666666667,8.208333333333334,500,8C520.8333333333334,7.791666666666667,529.1666666666666,31.583333333333332,550,32C570.8333333333334,32.416666666666664,579.1666666666666,8.75,600,10C620.8333333333334,11.25,629.1666666666666,36.541666666666664,650,38C670.8333333333334,39.458333333333336,679.1666666666666,15.541666666666666,700,17C720.8333333333334,18.458333333333332,729.1666666666666,43.958333333333336,750,45C770.8333333333334,46.041666666666664,789.5833333333334,26.791666666666668,800,22"
            transform="matrix(1,0,0,1,0,990)"></path>
        <path
            d="M10,10C18.333333333333336,11.458333333333334,31.25,21.166666666666668,50,17C68.75,12.833333333333332,79.16666666666666,-10.208333333333334,100,-10C120.83333333333334,-9.791666666666666,129.16666666666666,17.375,150,18C170.83333333333334,18.625,179.16666666666666,-8.458333333333334,200,-7C220.83333333333334,-5.541666666666666,229.16666666666666,23.958333333333332,250,25C270.8333333333333,26.041666666666668,279.1666666666667,-3.041666666666667,300,-2C320.8333333333333,-0.9583333333333333,329.1666666666667,29.375,350,30C370.8333333333333,30.625,379.1666666666667,0.375,400,1C420.8333333333333,1.625,429.1666666666667,31.541666666666668,450,33C470.8333333333333,34.458333333333336,479.1666666666667,8.208333333333334,500,8C520.8333333333334,7.791666666666667,529.1666666666666,31.583333333333332,550,32C570.8333333333334,32.416666666666664,579.1666666666666,8.75,600,10C620.8333333333334,11.25,629.1666666666666,36.541666666666664,650,38C670.8333333333334,39.458333333333336,679.1666666666666,15.541666666666666,700,17C720.8333333333334,18.458333333333332,729.1666666666666,43.958333333333336,750,45C770.8333333333334,46.041666666666664,789.5833333333334,26.791666666666668,800,22"
            transform="matrix(1,0,0,1,0,924)"></path>
        <path
            d="M10,10C18.333333333333336,11.458333333333334,31.25,21.166666666666668,50,17C68.75,12.833333333333332,79.16666666666666,-10.208333333333334,100,-10C120.83333333333334,-9.791666666666666,129.16666666666666,17.375,150,18C170.83333333333334,18.625,179.16666666666666,-8.458333333333334,200,-7C220.83333333333334,-5.541666666666666,229.16666666666666,23.958333333333332,250,25C270.8333333333333,26.041666666666668,279.1666666666667,-3.041666666666667,300,-2C320.8333333333333,-0.9583333333333333,329.1666666666667,29.375,350,30C370.8333333333333,30.625,379.1666666666667,0.375,400,1C420.8333333333333,1.625,429.1666666666667,31.541666666666668,450,33C470.8333333333333,34.458333333333336,479.1666666666667,8.208333333333334,500,8C520.8333333333334,7.791666666666667,529.1666666666666,31.583333333333332,550,32C570.8333333333334,32.416666666666664,579.1666666666666,8.75,600,10C620.8333333333334,11.25,629.1666666666666,36.541666666666664,650,38C670.8333333333334,39.458333333333336,679.1666666666666,15.541666666666666,700,17C720.8333333333334,18.458333333333332,729.1666666666666,43.958333333333336,750,45C770.8333333333334,46.041666666666664,789.5833333333334,26.791666666666668,800,22"
            transform="matrix(1,0,0,1,0,858)"></path>
        <path
            d="M10,10C18.333333333333336,11.458333333333334,31.25,21.166666666666668,50,17C68.75,12.833333333333332,79.16666666666666,-10.208333333333334,100,-10C120.83333333333334,-9.791666666666666,129.16666666666666,17.375,150,18C170.83333333333334,18.625,179.16666666666666,-8.458333333333334,200,-7C220.83333333333334,-5.541666666666666,229.16666666666666,23.958333333333332,250,25C270.8333333333333,26.041666666666668,279.1666666666667,-3.041666666666667,300,-2C320.8333333333333,-0.9583333333333333,329.1666666666667,29.375,350,30C370.8333333333333,30.625,379.1666666666667,0.375,400,1C420.8333333333333,1.625,429.1666666666667,31.541666666666668,450,33C470.8333333333333,34.458333333333336,479.1666666666667,8.208333333333334,500,8C520.8333333333334,7.791666666666667,529.1666666666666,31.583333333333332,550,32C570.8333333333334,32.416666666666664,579.1666666666666,8.75,600,10C620.8333333333334,11.25,629.1666666666666,36.541666666666664,650,38C670.8333333333334,39.458333333333336,679.1666666666666,15.541666666666666,700,17C720.8333333333334,18.458333333333332,729.1666666666666,43.958333333333336,750,45C770.8333333333334,46.041666666666664,789.5833333333334,26.791666666666668,800,22"
            transform="matrix(1,0,0,1,0,792)"></path>
        <path
            d="M10,10C18.333333333333336,11.458333333333334,31.25,21.166666666666668,50,17C68.75,12.833333333333332,79.16666666666666,-10.208333333333334,100,-10C120.83333333333334,-9.791666666666666,129.16666666666666,17.375,150,18C170.83333333333334,18.625,179.16666666666666,-8.458333333333334,200,-7C220.83333333333334,-5.541666666666666,229.16666666666666,23.958333333333332,250,25C270.8333333333333,26.041666666666668,279.1666666666667,-3.041666666666667,300,-2C320.8333333333333,-0.9583333333333333,329.1666666666667,29.375,350,30C370.8333333333333,30.625,379.1666666666667,0.375,400,1C420.8333333333333,1.625,429.1666666666667,31.541666666666668,450,33C470.8333333333333,34.458333333333336,479.1666666666667,8.208333333333334,500,8C520.8333333333334,7.791666666666667,529.1666666666666,31.583333333333332,550,32C570.8333333333334,32.416666666666664,579.1666666666666,8.75,600,10C620.8333333333334,11.25,629.1666666666666,36.541666666666664,650,38C670.8333333333334,39.458333333333336,679.1666666666666,15.541666666666666,700,17C720.8333333333334,18.458333333333332,729.1666666666666,43.958333333333336,750,45C770.8333333333334,46.041666666666664,789.5833333333334,26.791666666666668,800,22"
            transform="matrix(1,0,0,1,0,726)"></path>
        <path
            d="M10,10C18.333333333333336,11.458333333333334,31.25,21.166666666666668,50,17C68.75,12.833333333333332,79.16666666666666,-10.208333333333334,100,-10C120.83333333333334,-9.791666666666666,129.16666666666666,17.375,150,18C170.83333333333334,18.625,179.16666666666666,-8.458333333333334,200,-7C220.83333333333334,-5.541666666666666,229.16666666666666,23.958333333333332,250,25C270.8333333333333,26.041666666666668,279.1666666666667,-3.041666666666667,300,-2C320.8333333333333,-0.9583333333333333,329.1666666666667,29.375,350,30C370.8333333333333,30.625,379.1666666666667,0.375,400,1C420.8333333333333,1.625,429.1666666666667,31.541666666666668,450,33C470.8333333333333,34.458333333333336,479.1666666666667,8.208333333333334,500,8C520.8333333333334,7.791666666666667,529.1666666666666,31.583333333333332,550,32C570.8333333333334,32.416666666666664,579.1666666666666,8.75,600,10C620.8333333333334,11.25,629.1666666666666,36.541666666666664,650,38C670.8333333333334,39.458333333333336,679.1666666666666,15.541666666666666,700,17C720.8333333333334,18.458333333333332,729.1666666666666,43.958333333333336,750,45C770.8333333333334,46.041666666666664,789.5833333333334,26.791666666666668,800,22"
            transform="matrix(1,0,0,1,0,660)"></path>
        <path
            d="M10,10C18.333333333333336,11.458333333333334,31.25,21.166666666666668,50,17C68.75,12.833333333333332,79.16666666666666,-10.208333333333334,100,-10C120.83333333333334,-9.791666666666666,129.16666666666666,17.375,150,18C170.83333333333334,18.625,179.16666666666666,-8.458333333333334,200,-7C220.83333333333334,-5.541666666666666,229.16666666666666,23.958333333333332,250,25C270.8333333333333,26.041666666666668,279.1666666666667,-3.041666666666667,300,-2C320.8333333333333,-0.9583333333333333,329.1666666666667,29.375,350,30C370.8333333333333,30.625,379.1666666666667,0.375,400,1C420.8333333333333,1.625,429.1666666666667,31.541666666666668,450,33C470.8333333333333,34.458333333333336,479.1666666666667,8.208333333333334,500,8C520.8333333333334,7.791666666666667,529.1666666666666,31.583333333333332,550,32C570.8333333333334,32.416666666666664,579.1666666666666,8.75,600,10C620.8333333333334,11.25,629.1666666666666,36.541666666666664,650,38C670.8333333333334,39.458333333333336,679.1666666666666,15.541666666666666,700,17C720.8333333333334,18.458333333333332,729.1666666666666,43.958333333333336,750,45C770.8333333333334,46.041666666666664,789.5833333333334,26.791666666666668,800,22"
            transform="matrix(1,0,0,1,0,594)"></path>
        <path
            d="M10,10C18.333333333333336,11.458333333333334,31.25,21.166666666666668,50,17C68.75,12.833333333333332,79.16666666666666,-10.208333333333334,100,-10C120.83333333333334,-9.791666666666666,129.16666666666666,17.375,150,18C170.83333333333334,18.625,179.16666666666666,-8.458333333333334,200,-7C220.83333333333334,-5.541666666666666,229.16666666666666,23.958333333333332,250,25C270.8333333333333,26.041666666666668,279.1666666666667,-3.041666666666667,300,-2C320.8333333333333,-0.9583333333333333,329.1666666666667,29.375,350,30C370.8333333333333,30.625,379.1666666666667,0.375,400,1C420.8333333333333,1.625,429.1666666666667,31.541666666666668,450,33C470.8333333333333,34.458333333333336,479.1666666666667,8.208333333333334,500,8C520.8333333333334,7.791666666666667,529.1666666666666,31.583333333333332,550,32C570.8333333333334,32.416666666666664,579.1666666666666,8.75,600,10C620.8333333333334,11.25,629.1666666666666,36.541666666666664,650,38C670.8333333333334,39.458333333333336,679.1666666666666,15.541666666666666,700,17C720.8333333333334,18.458333333333332,729.1666666666666,43.958333333333336,750,45C770.8333333333334,46.041666666666664,789.5833333333334,26.791666666666668,800,22"
            transform="matrix(1,0,0,1,0,528)"></path>
        <path
            d="M10,10C18.333333333333336,11.458333333333334,31.25,21.166666666666668,50,17C68.75,12.833333333333332,79.16666666666666,-10.208333333333334,100,-10C120.83333333333334,-9.791666666666666,129.16666666666666,17.375,150,18C170.83333333333334,18.625,179.16666666666666,-8.458333333333334,200,-7C220.83333333333334,-5.541666666666666,229.16666666666666,23.958333333333332,250,25C270.8333333333333,26.041666666666668,279.1666666666667,-3.041666666666667,300,-2C320.8333333333333,-0.9583333333333333,329.1666666666667,29.375,350,30C370.8333333333333,30.625,379.1666666666667,0.375,400,1C420.8333333333333,1.625,429.1666666666667,31.541666666666668,450,33C470.8333333333333,34.458333333333336,479.1666666666667,8.208333333333334,500,8C520.8333333333334,7.791666666666667,529.1666666666666,31.583333333333332,550,32C570.8333333333334,32.416666666666664,579.1666666666666,8.75,600,10C620.8333333333334,11.25,629.1666666666666,36.541666666666664,650,38C670.8333333333334,39.458333333333336,679.1666666666666,15.541666666666666,700,17C720.8333333333334,18.458333333333332,729.1666666666666,43.958333333333336,750,45C770.8333333333334,46.041666666666664,789.5833333333334,26.791666666666668,800,22"
            transform="matrix(1,0,0,1,0,462)"></path>
        <path
            d="M10,10C18.333333333333336,11.458333333333334,31.25,21.166666666666668,50,17C68.75,12.833333333333332,79.16666666666666,-10.208333333333334,100,-10C120.83333333333334,-9.791666666666666,129.16666666666666,17.375,150,18C170.83333333333334,18.625,179.16666666666666,-8.458333333333334,200,-7C220.83333333333334,-5.541666666666666,229.16666666666666,23.958333333333332,250,25C270.8333333333333,26.041666666666668,279.1666666666667,-3.041666666666667,300,-2C320.8333333333333,-0.9583333333333333,329.1666666666667,29.375,350,30C370.8333333333333,30.625,379.1666666666667,0.375,400,1C420.8333333333333,1.625,429.1666666666667,31.541666666666668,450,33C470.8333333333333,34.458333333333336,479.1666666666667,8.208333333333334,500,8C520.8333333333334,7.791666666666667,529.1666666666666,31.583333333333332,550,32C570.8333333333334,32.416666666666664,579.1666666666666,8.75,600,10C620.8333333333334,11.25,629.1666666666666,36.541666666666664,650,38C670.8333333333334,39.458333333333336,679.1666666666666,15.541666666666666,700,17C720.8333333333334,18.458333333333332,729.1666666666666,43.958333333333336,750,45C770.8333333333334,46.041666666666664,789.5833333333334,26.791666666666668,800,22"
            transform="matrix(1,0,0,1,0,396)"></path>
        <path
            d="M10,10C18.333333333333336,11.458333333333334,31.25,21.166666666666668,50,17C68.75,12.833333333333332,79.16666666666666,-10.208333333333334,100,-10C120.83333333333334,-9.791666666666666,129.16666666666666,17.375,150,18C170.83333333333334,18.625,179.16666666666666,-8.458333333333334,200,-7C220.83333333333334,-5.541666666666666,229.16666666666666,23.958333333333332,250,25C270.8333333333333,26.041666666666668,279.1666666666667,-3.041666666666667,300,-2C320.8333333333333,-0.9583333333333333,329.1666666666667,29.375,350,30C370.8333333333333,30.625,379.1666666666667,0.375,400,1C420.8333333333333,1.625,429.1666666666667,31.541666666666668,450,33C470.8333333333333,34.458333333333336,479.1666666666667,8.208333333333334,500,8C520.8333333333334,7.791666666666667,529.1666666666666,31.583333333333332,550,32C570.8333333333334,32.416666666666664,579.1666666666666,8.75,600,10C620.8333333333334,11.25,629.1666666666666,36.541666666666664,650,38C670.8333333333334,39.458333333333336,679.1666666666666,15.541666666666666,700,17C720.8333333333334,18.458333333333332,729.1666666666666,43.958333333333336,750,45C770.8333333333334,46.041666666666664,789.5833333333334,26.791666666666668,800,22"
            transform="matrix(1,0,0,1,0,330)"></path>
        <path
            d="M10,10C18.333333333333336,11.458333333333334,31.25,21.166666666666668,50,17C68.75,12.833333333333332,79.16666666666666,-10.208333333333334,100,-10C120.83333333333334,-9.791666666666666,129.16666666666666,17.375,150,18C170.83333333333334,18.625,179.16666666666666,-8.458333333333334,200,-7C220.83333333333334,-5.541666666666666,229.16666666666666,23.958333333333332,250,25C270.8333333333333,26.041666666666668,279.1666666666667,-3.041666666666667,300,-2C320.8333333333333,-0.9583333333333333,329.1666666666667,29.375,350,30C370.8333333333333,30.625,379.1666666666667,0.375,400,1C420.8333333333333,1.625,429.1666666666667,31.541666666666668,450,33C470.8333333333333,34.458333333333336,479.1666666666667,8.208333333333334,500,8C520.8333333333334,7.791666666666667,529.1666666666666,31.583333333333332,550,32C570.8333333333334,32.416666666666664,579.1666666666666,8.75,600,10C620.8333333333334,11.25,629.1666666666666,36.541666666666664,650,38C670.8333333333334,39.458333333333336,679.1666666666666,15.541666666666666,700,17C720.8333333333334,18.458333333333332,729.1666666666666,43.958333333333336,750,45C770.8333333333334,46.041666666666664,789.5833333333334,26.791666666666668,800,22"
            transform="matrix(1,0,0,1,0,264)"></path>
        <path
            d="M10,10C18.333333333333336,11.458333333333334,31.25,21.166666666666668,50,17C68.75,12.833333333333332,79.16666666666666,-10.208333333333334,100,-10C120.83333333333334,-9.791666666666666,129.16666666666666,17.375,150,18C170.83333333333334,18.625,179.16666666666666,-8.458333333333334,200,-7C220.83333333333334,-5.541666666666666,229.16666666666666,23.958333333333332,250,25C270.8333333333333,26.041666666666668,279.1666666666667,-3.041666666666667,300,-2C320.8333333333333,-0.9583333333333333,329.1666666666667,29.375,350,30C370.8333333333333,30.625,379.1666666666667,0.375,400,1C420.8333333333333,1.625,429.1666666666667,31.541666666666668,450,33C470.8333333333333,34.458333333333336,479.1666666666667,8.208333333333334,500,8C520.8333333333334,7.791666666666667,529.1666666666666,31.583333333333332,550,32C570.8333333333334,32.416666666666664,579.1666666666666,8.75,600,10C620.8333333333334,11.25,629.1666666666666,36.541666666666664,650,38C670.8333333333334,39.458333333333336,679.1666666666666,15.541666666666666,700,17C720.8333333333334,18.458333333333332,729.1666666666666,43.958333333333336,750,45C770.8333333333334,46.041666666666664,789.5833333333334,26.791666666666668,800,22"
            transform="matrix(1,0,0,1,0,198)"></path>
        <path
            d="M10,10C18.333333333333336,11.458333333333334,31.25,21.166666666666668,50,17C68.75,12.833333333333332,79.16666666666666,-10.208333333333334,100,-10C120.83333333333334,-9.791666666666666,129.16666666666666,17.375,150,18C170.83333333333334,18.625,179.16666666666666,-8.458333333333334,200,-7C220.83333333333334,-5.541666666666666,229.16666666666666,23.958333333333332,250,25C270.8333333333333,26.041666666666668,279.1666666666667,-3.041666666666667,300,-2C320.8333333333333,-0.9583333333333333,329.1666666666667,29.375,350,30C370.8333333333333,30.625,379.1666666666667,0.375,400,1C420.8333333333333,1.625,429.1666666666667,31.541666666666668,450,33C470.8333333333333,34.458333333333336,479.1666666666667,8.208333333333334,500,8C520.8333333333334,7.791666666666667,529.1666666666666,31.583333333333332,550,32C570.8333333333334,32.416666666666664,579.1666666666666,8.75,600,10C620.8333333333334,11.25,629.1666666666666,36.541666666666664,650,38C670.8333333333334,39.458333333333336,679.1666666666666,15.541666666666666,700,17C720.8333333333334,18.458333333333332,729.1666666666666,43.958333333333336,750,45C770.8333333333334,46.041666666666664,789.5833333333334,26.791666666666668,800,22"
            transform="matrix(1,0,0,1,0,132)"></path>
        <path
            d="M10,10C18.333333333333336,11.458333333333334,31.25,21.166666666666668,50,17C68.75,12.833333333333332,79.16666666666666,-10.208333333333334,100,-10C120.83333333333334,-9.791666666666666,129.16666666666666,17.375,150,18C170.83333333333334,18.625,179.16666666666666,-8.458333333333334,200,-7C220.83333333333334,-5.541666666666666,229.16666666666666,23.958333333333332,250,25C270.8333333333333,26.041666666666668,279.1666666666667,-3.041666666666667,300,-2C320.8333333333333,-0.9583333333333333,329.1666666666667,29.375,350,30C370.8333333333333,30.625,379.1666666666667,0.375,400,1C420.8333333333333,1.625,429.1666666666667,31.541666666666668,450,33C470.8333333333333,34.458333333333336,479.1666666666667,8.208333333333334,500,8C520.8333333333334,7.791666666666667,529.1666666666666,31.583333333333332,550,32C570.8333333333334,32.416666666666664,579.1666666666666,8.75,600,10C620.8333333333334,11.25,629.1666666666666,36.541666666666664,650,38C670.8333333333334,39.458333333333336,679.1666666666666,15.541666666666666,700,17C720.8333333333334,18.458333333333332,729.1666666666666,43.958333333333336,750,45C770.8333333333334,46.041666666666664,789.5833333333334,26.791666666666668,800,22"
            transform="matrix(1,0,0,1,0,66)"></path>
    </g>
</svg>